<svg width="20" height="20" viewBox="0 0 20 20" fill="none" xmlns="http://www.w3.org/2000/svg">
<g clip-path="url(#clip0)">
<path d="M17.8238 16.1088C17.9598 15.9968 18.0432 15.8568 18.0738 15.6887C18.1045 15.5206 18.0764 15.3613 17.9896 15.2109C17.9027 15.0605 17.7788 14.9565 17.6179 14.899C17.457 14.8415 17.294 14.8437 17.129 14.9055C15.2842 15.5026 13.4736 15.4951 11.697 14.8829C9.90667 14.2787 8.55198 13.1806 7.63289 11.5887C6.72104 10.0093 6.45104 8.29336 6.82289 6.4408C7.18106 4.59615 8.07989 3.02429 9.51938 1.72523C9.6482 1.60072 9.72794 1.4544 9.7586 1.28629C9.78926 1.11817 9.76478 0.96517 9.68518 0.827288C9.59833 0.676871 9.47445 0.572909 9.31353 0.515402C9.1526 0.457894 8.98602 0.453792 8.81378 0.503096C8.06364 0.752348 7.36014 1.06659 6.70329 1.44583C5.12958 2.35441 3.87844 3.55307 2.94988 5.04182C2.02131 6.53057 1.52847 8.11036 1.47136 9.7812C1.4078 11.4725 1.79577 13.0451 2.63525 14.4992C3.4675 15.9407 4.62824 17.0504 6.11747 17.8285C7.59301 18.6145 9.21119 18.9838 10.972 18.9366C12.7256 18.8768 14.3892 18.3926 15.9629 17.484L16.004 17.4603C16.6335 17.0969 17.2401 16.6464 17.8238 16.1088ZM6.28899 12.3897C7.07782 13.756 8.16132 14.8268 9.53949 15.6021C10.9314 16.3695 12.4393 16.7691 14.0632 16.8009C12.1395 17.5773 10.2238 17.6722 8.31599 17.0856C6.39451 16.507 4.9489 15.3778 3.97915 13.6982C3.00941 12.0185 2.75796 10.2083 3.22481 8.26746C3.67074 6.32199 4.71082 4.71037 6.34506 3.43258C5.56057 4.85486 5.15267 6.36055 5.12135 7.94965C5.10372 9.53085 5.49293 11.0109 6.28899 12.3897Z" fill="black"/>
<path d="M2.43746 12.7371C2.65185 10.0894 3.71528 4.21111 6.25396 1.88004L6.68332 2.62371L5.73723 5.51362L5.35253 8.89068L6.46262 11.9456L8.74835 14.7724L12.6437 15.8587L15.5265 16.8084L10.8951 18.4908L6.21334 17.498L2.43746 12.7371Z" fill="black"/>
</g>
<defs>
<clipPath id="clip0">
<rect width="20" height="20" fill="white"/>
</clipPath>
</defs>
</svg>
