<svg width="20" height="20" viewBox="0 0 20 20" fill="none" xmlns="http://www.w3.org/2000/svg">
<path d="M10 3.75C8.27273 3.75 6.80303 4.36364 5.59091 5.59091C4.36364 6.80303 3.75 8.27273 3.75 10C3.75 11.7273 4.36364 13.197 5.59091 14.4091C6.80303 15.6364 8.27273 16.25 10 16.25C11.7273 16.25 13.197 15.6364 14.4091 14.4091C15.6364 13.197 16.25 11.7273 16.25 10C16.25 8.27273 15.6364 6.80303 14.4091 5.59091C13.197 4.36364 11.7273 3.75 10 3.75ZM10 5.11364C11.3485 5.11364 12.5 5.59091 13.4545 6.54546C14.4091 7.5 14.8864 8.65152 14.8864 10C14.8864 11.3485 14.4091 12.5 13.4545 13.4545C12.5 14.4091 11.3485 14.8864 10 14.8864C8.65151 14.8864 7.5 14.4091 6.54545 13.4545C5.59091 12.5 5.11364 11.3485 5.11364 10C5.11364 8.65152 5.59091 7.5 6.54545 6.54546C7.5 5.59091 8.65151 5.11364 10 5.11364ZM10 2.5L10.4545 2.54546V0H9.54545V2.54546L10 2.5ZM17.5455 3.43182C17.3485 3.18939 17.1439 2.9697 16.9318 2.77273L15.1364 4.56818C15.2727 4.7197 15.4697 4.93939 15.7273 5.22727L17.5455 3.43182ZM0.0227273 10.7955H2.59091C2.5303 10.2955 2.5 10.0303 2.5 10C2.5 9.98485 2.50758 9.96212 2.52273 9.93182V9.88636H0V10.1136C0 10.2197 0.00757577 10.447 0.0227273 10.7955ZM4.86364 4.56818L3.06818 2.77273C2.87121 2.9697 2.66667 3.18939 2.45455 3.43182L4.27273 5.22727C4.51515 4.93939 4.71212 4.7197 4.86364 4.56818ZM2.77273 16.9318C2.9697 17.1288 3.18939 17.3333 3.43182 17.5455L5.22727 15.7273C4.93939 15.4697 4.7197 15.2727 4.56818 15.1364L2.77273 16.9318ZM14.7727 15.7273L16.5682 17.5455C16.7955 17.3636 17.0152 17.1591 17.2273 16.9318L15.4318 15.1364C15.2803 15.2879 15.0606 15.4848 14.7727 15.7273ZM20 9.88636H17.4773V9.93182C17.4924 9.96212 17.5 9.98485 17.5 10C17.5 10.0303 17.4697 10.2955 17.4091 10.7955H19.9773C19.9924 10.4621 20 10.197 20 10V9.88636ZM10 20L10.4545 19.9773V17.4545L10 17.5L9.54545 17.4545V19.9773L10 20Z" fill="black"/>
<path d="M15.9186 10.0193C15.9186 13.3098 13.2511 15.9773 9.96054 15.9773C6.67002 15.9773 4.00253 13.3098 4.00253 10.0193C4.00253 6.72873 6.67002 4.06124 9.96054 4.06124C13.2511 4.06124 15.9186 6.72873 15.9186 10.0193Z" fill="black"/>
</svg>
